<mxfile host="app.diagrams.net" agent="Mozilla/5.0 (Windows NT 10.0; Win64; x64) AppleWebKit/537.36 (KHTML, like Gecko) Chrome/133.0.0.0 Safari/537.36" version="26.0.15">
  <diagram id="C5RBs43oDa-KdzZeNtuy" name="Page-1">
    <mxGraphModel dx="954" dy="558" grid="1" gridSize="10" guides="1" tooltips="1" connect="1" arrows="1" fold="1" page="1" pageScale="1" pageWidth="827" pageHeight="1169" math="0" shadow="0">
      <root>
        <mxCell id="WIyWlLk6GJQsqaUBKTNV-0" />
        <mxCell id="WIyWlLk6GJQsqaUBKTNV-1" parent="WIyWlLk6GJQsqaUBKTNV-0" />
        <mxCell id="WIyWlLk6GJQsqaUBKTNV-2" value="" style="rounded=0;html=1;jettySize=auto;orthogonalLoop=1;fontSize=11;endArrow=block;endFill=0;endSize=8;strokeWidth=1;shadow=0;labelBackgroundColor=none;edgeStyle=orthogonalEdgeStyle;" parent="WIyWlLk6GJQsqaUBKTNV-1" source="WIyWlLk6GJQsqaUBKTNV-3" target="WIyWlLk6GJQsqaUBKTNV-6" edge="1">
          <mxGeometry relative="1" as="geometry" />
        </mxCell>
        <mxCell id="WIyWlLk6GJQsqaUBKTNV-3" value="&lt;span class=&quot;hljs-built_in&quot;&gt;Initialize&lt;/span&gt; &lt;span class=&quot;hljs-variable&quot;&gt;Serial&lt;/span&gt; &lt;span class=&quot;hljs-punctuation&quot;&gt;(&lt;/span&gt;&lt;span class=&quot;hljs-number&quot;&gt;115200&lt;/span&gt;&lt;span class=&quot;hljs-punctuation&quot;&gt;)&lt;/span&gt;" style="rounded=1;whiteSpace=wrap;html=1;fontSize=12;glass=0;strokeWidth=1;shadow=0;" parent="WIyWlLk6GJQsqaUBKTNV-1" vertex="1">
          <mxGeometry x="160" y="90" width="120" height="40" as="geometry" />
        </mxCell>
        <mxCell id="WIyWlLk6GJQsqaUBKTNV-4" value="Yes" style="rounded=0;html=1;jettySize=auto;orthogonalLoop=1;fontSize=11;endArrow=block;endFill=0;endSize=8;strokeWidth=1;shadow=0;labelBackgroundColor=none;edgeStyle=orthogonalEdgeStyle;" parent="WIyWlLk6GJQsqaUBKTNV-1" source="WIyWlLk6GJQsqaUBKTNV-6" edge="1">
          <mxGeometry y="20" relative="1" as="geometry">
            <mxPoint as="offset" />
            <mxPoint x="220" y="290" as="targetPoint" />
          </mxGeometry>
        </mxCell>
        <mxCell id="WIyWlLk6GJQsqaUBKTNV-5" value="No" style="edgeStyle=orthogonalEdgeStyle;rounded=0;html=1;jettySize=auto;orthogonalLoop=1;fontSize=11;endArrow=block;endFill=0;endSize=8;strokeWidth=1;shadow=0;labelBackgroundColor=none;" parent="WIyWlLk6GJQsqaUBKTNV-1" source="WIyWlLk6GJQsqaUBKTNV-6" target="WIyWlLk6GJQsqaUBKTNV-7" edge="1">
          <mxGeometry y="10" relative="1" as="geometry">
            <mxPoint as="offset" />
          </mxGeometry>
        </mxCell>
        <mxCell id="WIyWlLk6GJQsqaUBKTNV-6" value="&lt;span class=&quot;hljs-built_in&quot;&gt;Connect&lt;/span&gt; &lt;span class=&quot;hljs-variable&quot;&gt;to&lt;/span&gt;&amp;nbsp;&lt;div&gt;&lt;span class=&quot;hljs-variable&quot;&gt;Wi&lt;/span&gt;&lt;span class=&quot;hljs-operator&quot;&gt;-&lt;/span&gt;&lt;span class=&quot;hljs-variable&quot;&gt;Fi&lt;/span&gt;&lt;/div&gt;" style="rhombus;whiteSpace=wrap;html=1;shadow=0;fontFamily=Helvetica;fontSize=12;align=center;strokeWidth=1;spacing=6;spacingTop=-4;" parent="WIyWlLk6GJQsqaUBKTNV-1" vertex="1">
          <mxGeometry x="170" y="175" width="100" height="70" as="geometry" />
        </mxCell>
        <mxCell id="WIyWlLk6GJQsqaUBKTNV-7" value="Retry" style="rounded=1;whiteSpace=wrap;html=1;fontSize=12;glass=0;strokeWidth=1;shadow=0;" parent="WIyWlLk6GJQsqaUBKTNV-1" vertex="1">
          <mxGeometry x="320" y="190" width="120" height="40" as="geometry" />
        </mxCell>
        <mxCell id="WIyWlLk6GJQsqaUBKTNV-8" value="Yes" style="rounded=0;html=1;jettySize=auto;orthogonalLoop=1;fontSize=11;endArrow=block;endFill=0;endSize=8;strokeWidth=1;shadow=0;labelBackgroundColor=none;edgeStyle=orthogonalEdgeStyle;" parent="WIyWlLk6GJQsqaUBKTNV-1" edge="1">
          <mxGeometry x="0.3333" y="20" relative="1" as="geometry">
            <mxPoint as="offset" />
            <mxPoint x="219.5" y="330" as="sourcePoint" />
            <mxPoint x="219.5" y="370" as="targetPoint" />
            <Array as="points">
              <mxPoint x="219.5" y="350" />
              <mxPoint x="219.5" y="350" />
            </Array>
          </mxGeometry>
        </mxCell>
        <mxCell id="eBNX_4J-cR-1eQRvhwGJ-2" value="START" style="rounded=1;whiteSpace=wrap;html=1;" parent="WIyWlLk6GJQsqaUBKTNV-1" vertex="1">
          <mxGeometry x="160" y="10" width="120" height="40" as="geometry" />
        </mxCell>
        <mxCell id="eBNX_4J-cR-1eQRvhwGJ-5" value="" style="endArrow=classic;html=1;rounded=0;entryX=0.5;entryY=0;entryDx=0;entryDy=0;" parent="WIyWlLk6GJQsqaUBKTNV-1" target="WIyWlLk6GJQsqaUBKTNV-3" edge="1">
          <mxGeometry width="50" height="50" relative="1" as="geometry">
            <mxPoint x="219.5" y="50" as="sourcePoint" />
            <mxPoint x="219.5" y="80" as="targetPoint" />
          </mxGeometry>
        </mxCell>
        <mxCell id="eBNX_4J-cR-1eQRvhwGJ-7" value="&lt;span class=&quot;hljs-built_in&quot;&gt;Initialize&lt;/span&gt; &lt;span class=&quot;hljs-variable&quot;&gt;DHT11&lt;/span&gt; &lt;span class=&quot;hljs-variable&quot;&gt;Sensor&lt;/span&gt;" style="rounded=1;whiteSpace=wrap;html=1;" parent="WIyWlLk6GJQsqaUBKTNV-1" vertex="1">
          <mxGeometry x="160" y="290" width="120" height="40" as="geometry" />
        </mxCell>
        <mxCell id="eBNX_4J-cR-1eQRvhwGJ-9" value="&lt;div&gt;&lt;font&gt;&lt;span style=&quot;&quot; class=&quot;hljs-built_in&quot;&gt;&lt;br&gt;&lt;/span&gt;&lt;/font&gt;&lt;/div&gt;&lt;font&gt;&lt;span style=&quot;&quot; class=&quot;hljs-built_in&quot;&gt;Read&lt;/span&gt; &lt;span style=&quot;&quot; class=&quot;hljs-variable&quot;&gt;Temperature&lt;/span&gt; &lt;span style=&quot;&quot; class=&quot;hljs-variable&quot;&gt;Data&lt;/span&gt;&lt;/font&gt;" style="rhombus;whiteSpace=wrap;html=1;" parent="WIyWlLk6GJQsqaUBKTNV-1" vertex="1">
          <mxGeometry x="157.5" y="370" width="125" height="100" as="geometry" />
        </mxCell>
        <mxCell id="eBNX_4J-cR-1eQRvhwGJ-11" value="&lt;div&gt;&lt;font&gt;&lt;span style=&quot;&quot; class=&quot;hljs-built_in&quot;&gt;&lt;br&gt;&lt;/span&gt;&lt;/font&gt;&lt;/div&gt;&lt;font&gt;&lt;span style=&quot;&quot; class=&quot;hljs-variable&quot;&gt;Send&lt;/span&gt;&amp;nbsp;Temperature&amp;nbsp;&lt;span style=&quot;&quot; class=&quot;hljs-variable&quot;&gt;Data&lt;/span&gt; &lt;span style=&quot;&quot; class=&quot;hljs-variable&quot;&gt;to&lt;/span&gt; &lt;span style=&quot;&quot; class=&quot;hljs-variable&quot;&gt;ThingSpeak&lt;/span&gt;&lt;/font&gt;" style="rhombus;whiteSpace=wrap;html=1;" parent="WIyWlLk6GJQsqaUBKTNV-1" vertex="1">
          <mxGeometry x="274" y="520" width="140" height="100" as="geometry" />
        </mxCell>
        <mxCell id="eBNX_4J-cR-1eQRvhwGJ-14" value="Yes" style="rounded=0;html=1;jettySize=auto;orthogonalLoop=1;fontSize=11;endArrow=block;endFill=0;endSize=8;strokeWidth=1;shadow=0;labelBackgroundColor=none;edgeStyle=orthogonalEdgeStyle;" parent="WIyWlLk6GJQsqaUBKTNV-1" edge="1">
          <mxGeometry x="0.0369" y="10" relative="1" as="geometry">
            <mxPoint as="offset" />
            <mxPoint x="219.5" y="470" as="sourcePoint" />
            <mxPoint x="270" y="570" as="targetPoint" />
            <Array as="points">
              <mxPoint x="220" y="570" />
            </Array>
          </mxGeometry>
        </mxCell>
        <mxCell id="eBNX_4J-cR-1eQRvhwGJ-16" value="&lt;div&gt;&lt;font&gt;&lt;span style=&quot;&quot; class=&quot;hljs-built_in&quot;&gt;&lt;br&gt;&lt;/span&gt;&lt;/font&gt;&lt;/div&gt;&lt;span class=&quot;hljs-built_in&quot;&gt;Update&amp;nbsp;&lt;/span&gt;&lt;span class=&quot;hljs-variable&quot;&gt;Live Temperature&lt;/span&gt;&amp;nbsp;&lt;div&gt;&lt;span class=&quot;hljs-variable&quot;&gt;in&lt;/span&gt;&amp;nbsp;AR Model&amp;nbsp;&lt;/div&gt;" style="rhombus;whiteSpace=wrap;html=1;" parent="WIyWlLk6GJQsqaUBKTNV-1" vertex="1">
          <mxGeometry x="560" y="520" width="160" height="100" as="geometry" />
        </mxCell>
        <mxCell id="eBNX_4J-cR-1eQRvhwGJ-22" value="" style="edgeStyle=orthogonalEdgeStyle;rounded=0;html=1;jettySize=auto;orthogonalLoop=1;fontSize=11;endArrow=block;endFill=0;endSize=8;strokeWidth=1;shadow=0;labelBackgroundColor=none;exitX=1;exitY=0.5;exitDx=0;exitDy=0;entryX=0;entryY=0.5;entryDx=0;entryDy=0;" parent="WIyWlLk6GJQsqaUBKTNV-1" source="eBNX_4J-cR-1eQRvhwGJ-11" target="eBNX_4J-cR-1eQRvhwGJ-16" edge="1">
          <mxGeometry y="10" relative="1" as="geometry">
            <mxPoint as="offset" />
            <mxPoint x="460" y="569.38" as="sourcePoint" />
            <mxPoint x="510" y="569.38" as="targetPoint" />
          </mxGeometry>
        </mxCell>
        <mxCell id="eBNX_4J-cR-1eQRvhwGJ-23" value="&lt;span class=&quot;hljs-built_in&quot;&gt;Print&lt;/span&gt; &lt;span class=&quot;hljs-variable&quot;&gt;Error&lt;/span&gt; &lt;span class=&quot;hljs-operator&quot;&gt;&amp;amp;&lt;/span&gt; &lt;span class=&quot;hljs-variable&quot;&gt;Retry&lt;/span&gt;" style="rounded=1;whiteSpace=wrap;html=1;fontSize=12;glass=0;strokeWidth=1;shadow=0;" parent="WIyWlLk6GJQsqaUBKTNV-1" vertex="1">
          <mxGeometry x="280" y="680" width="120" height="40" as="geometry" />
        </mxCell>
        <mxCell id="eBNX_4J-cR-1eQRvhwGJ-26" value="No" style="edgeStyle=orthogonalEdgeStyle;rounded=0;html=1;jettySize=auto;orthogonalLoop=1;fontSize=11;endArrow=block;endFill=0;endSize=8;strokeWidth=1;shadow=0;labelBackgroundColor=none;exitX=0.5;exitY=1;exitDx=0;exitDy=0;" parent="WIyWlLk6GJQsqaUBKTNV-1" source="eBNX_4J-cR-1eQRvhwGJ-11" target="eBNX_4J-cR-1eQRvhwGJ-23" edge="1">
          <mxGeometry y="10" relative="1" as="geometry">
            <mxPoint as="offset" />
            <mxPoint x="292.5" y="640.5" as="sourcePoint" />
            <mxPoint x="332.5" y="640" as="targetPoint" />
            <Array as="points">
              <mxPoint x="344" y="660" />
              <mxPoint x="344" y="660" />
            </Array>
          </mxGeometry>
        </mxCell>
        <mxCell id="eBNX_4J-cR-1eQRvhwGJ-27" value="&lt;span style=&quot;color: rgb(0, 0, 0); font-family: Helvetica; font-size: 11px; font-style: normal; font-variant-ligatures: normal; font-variant-caps: normal; font-weight: 400; letter-spacing: normal; orphans: 2; text-align: center; text-indent: 0px; text-transform: none; widows: 2; word-spacing: 0px; -webkit-text-stroke-width: 0px; white-space: nowrap; background-color: rgb(251, 251, 251); text-decoration-thickness: initial; text-decoration-style: initial; text-decoration-color: initial; display: inline !important; float: none;&quot;&gt;No&lt;/span&gt;" style="text;whiteSpace=wrap;html=1;" parent="WIyWlLk6GJQsqaUBKTNV-1" vertex="1">
          <mxGeometry x="110" y="420" width="50" height="40" as="geometry" />
        </mxCell>
        <mxCell id="eBNX_4J-cR-1eQRvhwGJ-32" value="" style="edgeStyle=orthogonalEdgeStyle;rounded=0;html=1;jettySize=auto;orthogonalLoop=1;fontSize=11;endArrow=block;endFill=0;endSize=8;strokeWidth=1;shadow=0;labelBackgroundColor=none;exitX=0.5;exitY=0;exitDx=0;exitDy=0;entryX=0.5;entryY=1;entryDx=0;entryDy=0;" parent="WIyWlLk6GJQsqaUBKTNV-1" source="eBNX_4J-cR-1eQRvhwGJ-16" target="eBNX_4J-cR-1eQRvhwGJ-33" edge="1">
          <mxGeometry y="10" relative="1" as="geometry">
            <mxPoint as="offset" />
            <mxPoint x="580" y="400" as="sourcePoint" />
            <mxPoint x="630" y="460" as="targetPoint" />
            <Array as="points" />
          </mxGeometry>
        </mxCell>
        <mxCell id="eBNX_4J-cR-1eQRvhwGJ-33" value="&lt;span class=&quot;hljs-variable&quot;&gt;Change Model&lt;/span&gt;&amp;nbsp;&lt;span class=&quot;hljs-variable&quot;&gt;Color&lt;/span&gt; &lt;span class=&quot;hljs-variable&quot;&gt;if&lt;/span&gt;&amp;nbsp;&lt;div&gt;&lt;span class=&quot;hljs-variable&quot;&gt;Temperature&lt;/span&gt; &lt;span class=&quot;hljs-operator&quot;&gt;&amp;gt;&lt;/span&gt;&amp;nbsp;Preset Values&lt;/div&gt;" style="rounded=1;whiteSpace=wrap;html=1;fontSize=12;glass=0;strokeWidth=1;shadow=0;" parent="WIyWlLk6GJQsqaUBKTNV-1" vertex="1">
          <mxGeometry x="570" y="392.5" width="140" height="55" as="geometry" />
        </mxCell>
        <mxCell id="eBNX_4J-cR-1eQRvhwGJ-36" value="&lt;span class=&quot;hljs-variable&quot;&gt;Wait&lt;/span&gt;&amp;nbsp;for Next Data&lt;span class=&quot;hljs-variable&quot;&gt;&amp;nbsp;and Repeat the process&lt;/span&gt;" style="rounded=1;whiteSpace=wrap;html=1;fontSize=12;glass=0;strokeWidth=1;shadow=0;" parent="WIyWlLk6GJQsqaUBKTNV-1" vertex="1">
          <mxGeometry x="370" y="395" width="120" height="50" as="geometry" />
        </mxCell>
        <mxCell id="eBNX_4J-cR-1eQRvhwGJ-37" value="&lt;span class=&quot;hljs-built_in&quot;&gt;Print&lt;/span&gt; &lt;span class=&quot;hljs-variable&quot;&gt;Error&lt;/span&gt; &lt;span class=&quot;hljs-operator&quot;&gt;&amp;amp;&lt;/span&gt; &lt;span class=&quot;hljs-variable&quot;&gt;Retry&lt;/span&gt;" style="rounded=1;whiteSpace=wrap;html=1;fontSize=12;glass=0;strokeWidth=1;shadow=0;" parent="WIyWlLk6GJQsqaUBKTNV-1" vertex="1">
          <mxGeometry x="50" y="460" width="120" height="50" as="geometry" />
        </mxCell>
        <mxCell id="eBNX_4J-cR-1eQRvhwGJ-40" value="" style="endArrow=classic;html=1;rounded=0;exitX=0;exitY=0.5;exitDx=0;exitDy=0;" parent="WIyWlLk6GJQsqaUBKTNV-1" source="eBNX_4J-cR-1eQRvhwGJ-9" edge="1">
          <mxGeometry width="50" height="50" relative="1" as="geometry">
            <mxPoint x="170" y="390" as="sourcePoint" />
            <mxPoint x="110" y="460" as="targetPoint" />
          </mxGeometry>
        </mxCell>
        <mxCell id="eBNX_4J-cR-1eQRvhwGJ-41" value="" style="endArrow=classic;html=1;rounded=0;exitX=0;exitY=0.5;exitDx=0;exitDy=0;entryX=1;entryY=0.5;entryDx=0;entryDy=0;" parent="WIyWlLk6GJQsqaUBKTNV-1" source="eBNX_4J-cR-1eQRvhwGJ-33" target="eBNX_4J-cR-1eQRvhwGJ-36" edge="1">
          <mxGeometry width="50" height="50" relative="1" as="geometry">
            <mxPoint x="410" y="450" as="sourcePoint" />
            <mxPoint x="460" y="400" as="targetPoint" />
          </mxGeometry>
        </mxCell>
        <mxCell id="eBNX_4J-cR-1eQRvhwGJ-42" value="" style="endArrow=classic;html=1;rounded=0;exitX=0;exitY=0.5;exitDx=0;exitDy=0;entryX=1;entryY=0.5;entryDx=0;entryDy=0;" parent="WIyWlLk6GJQsqaUBKTNV-1" source="eBNX_4J-cR-1eQRvhwGJ-36" target="eBNX_4J-cR-1eQRvhwGJ-9" edge="1">
          <mxGeometry width="50" height="50" relative="1" as="geometry">
            <mxPoint x="410" y="450" as="sourcePoint" />
            <mxPoint x="460" y="400" as="targetPoint" />
          </mxGeometry>
        </mxCell>
      </root>
    </mxGraphModel>
  </diagram>
</mxfile>
